<?xml version="1.0" standalone="no"?>
<!DOCTYPE svg PUBLIC "-//W3C//DTD SVG 20010904//EN"
 "http://www.w3.org/TR/2001/REC-SVG-20010904/DTD/svg10.dtd">
<svg version="1.0" xmlns="http://www.w3.org/2000/svg"
 width="1280.000000pt" height="1280.000000pt" viewBox="0 0 1280.000000 1280.000000"
 preserveAspectRatio="xMidYMid meet">
<g transform="translate(0.000000,1280.000000) scale(0.100000,-0.100000)"
fill="#FED8D2" stroke="none">
<path d="M5575 12699 c-103 -15 -189 -32 -205 -40 -8 -4 -46 -19 -85 -35 -64
-25 -133 -60 -145 -74 -3 -3 -32 -23 -65 -44 -77 -50 -216 -191 -282 -288 -59
-85 -128 -213 -163 -303 -13 -33 -27 -64 -30 -70 -4 -5 -11 -26 -15 -45 -4
-19 -13 -46 -20 -60 -16 -30 -37 -124 -70 -311 -17 -95 -25 -186 -28 -300 -7
-307 19 -552 88 -834 26 -104 103 -351 127 -405 6 -14 17 -40 24 -57 35 -84
44 -104 89 -198 140 -292 368 -606 587 -808 175 -161 334 -273 501 -352 199
-94 343 -132 544 -142 181 -10 388 32 518 105 17 9 56 31 88 48 126 67 280
221 385 384 106 162 200 395 236 580 2 14 10 50 16 80 51 252 51 638 0 925 -6
33 -15 85 -19 115 -17 106 -59 265 -114 420 -78 225 -108 292 -218 501 -108
205 -198 340 -338 508 -203 243 -437 434 -676 551 -188 92 -292 125 -455 145
-95 11 -217 13 -275 4z"/>
<path d="M9150 11574 c-50 -5 -164 -30 -195 -43 -11 -5 -43 -18 -71 -29 -49
-19 -85 -40 -175 -104 -216 -153 -396 -445 -479 -778 -11 -47 -25 -101 -30
-120 -25 -103 -50 -354 -50 -510 0 -188 39 -523 81 -705 48 -206 147 -523 190
-607 5 -10 9 -22 9 -28 0 -29 200 -430 261 -523 24 -37 62 -95 84 -129 22 -35
44 -67 48 -73 4 -5 35 -46 68 -89 337 -446 703 -736 1084 -861 332 -108 688
-67 925 108 206 152 371 394 464 682 35 108 42 138 71 301 71 399 28 883 -124
1409 -79 274 -277 710 -429 945 -20 30 -47 73 -61 95 -107 169 -287 384 -452
541 -290 274 -552 423 -881 502 -51 13 -266 22 -338 16z"/>
<path d="M2225 10758 c-206 -37 -360 -98 -523 -206 -106 -69 -260 -238 -319
-348 -73 -136 -124 -275 -143 -389 -7 -38 -16 -89 -20 -113 -25 -134 1 -453
51 -641 23 -85 74 -240 94 -286 103 -233 190 -404 237 -465 10 -14 38 -54 61
-90 197 -303 530 -634 845 -842 306 -201 608 -336 867 -386 211 -41 263 -47
430 -47 169 0 198 4 369 46 369 91 653 348 780 704 62 176 80 311 73 535 -5
147 -16 232 -52 395 -30 133 -128 400 -181 491 -13 22 -24 46 -24 53 0 6 -25
53 -56 104 -31 50 -68 112 -82 137 -14 25 -29 47 -32 50 -4 3 -28 37 -55 75
-273 395 -672 742 -1136 989 -207 110 -520 208 -748 236 -100 12 -366 11 -436
-2z"/>
<path d="M6390 7819 c-175 -24 -347 -64 -419 -95 -81 -36 -186 -88 -191 -94
-3 -4 -27 -20 -55 -35 -68 -39 -122 -81 -204 -157 -207 -192 -362 -450 -440
-730 l-22 -78 21 -262 c31 -377 49 -854 49 -1305 1 -611 -14 -918 -79 -1593
-12 -128 -57 -498 -71 -585 -10 -69 -18 -118 -39 -265 -17 -111 -51 -313 -69
-410 -27 -141 -2 -371 66 -615 19 -66 73 -208 94 -249 64 -117 135 -243 141
-251 5 -5 36 -48 70 -95 96 -134 332 -363 461 -448 60 -40 110 -72 113 -72 2
0 21 -11 42 -23 20 -13 78 -42 127 -64 221 -100 388 -135 658 -141 173 -3 200
-1 320 23 73 15 173 42 223 61 51 19 94 34 97 34 3 0 50 25 104 55 199 113
243 149 476 389 341 352 587 560 932 790 76 51 117 75 294 174 119 67 290 147
441 206 52 21 102 41 110 46 9 4 31 11 50 15 19 4 41 11 50 16 26 13 270 86
400 119 169 42 188 47 315 70 268 50 323 67 526 164 41 20 79 36 82 36 13 0
190 123 262 181 102 82 229 219 313 335 39 56 72 104 72 107 0 3 20 39 44 79
175 297 276 766 246 1138 -20 237 -82 516 -141 632 -5 10 -9 22 -9 28 0 20
-123 266 -165 330 -89 137 -112 170 -168 245 -82 107 -264 286 -388 381 -126
98 -167 125 -284 186 -181 94 -965 482 -1026 507 -19 8 -81 37 -139 64 -58 27
-130 61 -160 74 -30 14 -79 36 -107 49 -90 41 -165 75 -248 114 -44 21 -107
49 -140 63 -184 79 -474 200 -570 237 -60 24 -137 56 -170 71 -33 15 -71 30
-85 34 -14 4 -52 19 -85 33 -33 13 -100 39 -150 57 -108 40 -302 113 -330 125
-11 5 -54 20 -95 33 -41 14 -113 40 -160 57 -95 36 -269 99 -375 135 -61 21
-190 50 -305 69 -70 11 -246 14 -310 5z"/>
<path d="M1460 7045 c-199 -40 -342 -99 -478 -197 -257 -186 -406 -431 -468
-772 -32 -173 -29 -429 7 -601 61 -294 141 -511 280 -761 197 -355 414 -622
729 -895 82 -71 273 -215 320 -240 19 -11 64 -38 100 -61 97 -61 211 -121 351
-181 173 -75 292 -113 469 -148 81 -16 303 -39 381 -39 142 0 366 39 492 86
310 117 551 355 662 654 15 41 31 84 36 95 5 11 19 67 31 125 32 151 32 461
-1 635 -45 244 -122 471 -232 680 -59 113 -141 260 -148 265 -3 3 -24 32 -46
65 -124 187 -224 307 -409 489 -279 275 -535 451 -921 633 -171 81 -393 147
-602 178 -155 23 -411 19 -553 -10z"/>
</g>
</svg>
