<?xml version="1.0" encoding="utf-8"?>
<!-- Generator: Adobe Illustrator 25.3.1, SVG Export Plug-In . SVG Version: 6.00 Build 0)  -->
<svg version="1.1" id="Layer_1" focusable="false" xmlns="http://www.w3.org/2000/svg" xmlns:xlink="http://www.w3.org/1999/xlink"
	 x="0px" y="0px" viewBox="0 0 1600 1660" style="enable-background:new 0 0 1600 1660;" xml:space="preserve">
<style type="text/css">
	.st0{fill:#F0ECE5;}
	.st1{fill:#FED8D2;}
	.st2{fill:#FFE95A;}
</style>
<path d="M-673.9,196.1c-79.4,0-192,122.8-192,200.2c0,34.9,26.8,55.8,71.7,55.8c48.8,0,81.1-25.1,120.3-25.1
	c39.5,0,71.9,25.1,120.3,25.1c44.9,0,71.7-20.9,71.7-55.8C-481.9,318.8-594.5,196.1-673.9,196.1z M-821.2,183.4
	c-10.4-34.7-42.4-57.1-71.6-50.1c-29.1,7-44.3,40.7-33.9,75.3s42.4,57.1,71.6,50.1C-826,251.8-810.8,218.1-821.2,183.4L-821.2,183.4
	z M-736.5,162.7c30.9-8.1,46.4-49.9,34.6-93.4c-11.8-43.4-46.5-72-77.5-63.9s-46.4,49.9-34.6,93.4
	C-802.1,142.2-767.4,170.8-736.5,162.7z M-455.1,133.3c-29.1-7-61.1,15.5-71.6,50.1c-10.4,34.7,4.8,68.4,33.9,75.3
	c29.1,7,61.1-15.5,71.6-50.1C-410.8,174-426,140.3-455.1,133.3L-455.1,133.3z M-611.4,162.7c30.9,8.1,65.6-20.4,77.5-63.9
	c11.8-43.4-3.6-85.2-34.6-93.4c-30.9-8.2-65.6,20.5-77.5,63.9C-657.8,112.7-642.3,154.5-611.4,162.7z"/>
<path class="st0" d="M300.7,1360.7c-56.2-56.2-222.6-49-277.4,5.8c-24.7,24.7-20.5,58.4,11.3,90.1c34.5,34.5,75.1,39.6,102.8,67.3
	c27.9,27.9,33.1,68.5,67.3,102.8c31.8,31.8,65.5,36,90.1,11.3C349.6,1583.3,356.8,1416.9,300.7,1360.7z M205.4,1247.7
	c17.1-31.9,10.4-70.4-15.2-86c-25.5-15.7-60.1-2.5-77.2,29.3c-17.1,31.9-10.4,70.4,15.2,86S188.3,1279.5,205.4,1247.7L205.4,1247.7z
	 M280,1292.9c27.6,16.1,68.1-2.5,90.5-41.6c22.3-39.1,18-83.8-9.6-99.9c-27.6-16.1-68.1,2.5-90.5,41.6
	C248.1,1232,252.4,1276.8,280,1292.9z M499.8,1471.1c-15.7-25.5-54.2-32.3-86-15.2c-31.9,17.1-45,51.7-29.3,77.2
	c15.7,25.5,54.2,32.3,86,15.2C502.3,1531.2,515.4,1496.6,499.8,1471.1L499.8,1471.1z M368.5,1381.3c16.1,27.6,60.9,31.9,99.9,9.6
	s57.7-62.8,41.6-90.5c-16.1-27.6-60.9-31.9-99.9-9.6S352.4,1353.7,368.5,1381.3z"/>
<path class="st1" d="M1364.2,1225.7c-56.2-56.2-222.6-49-277.4,5.8c-24.7,24.7-20.5,58.4,11.3,90.1c34.5,34.5,75.1,39.6,102.8,67.3
	c27.9,27.9,33.1,68.5,67.3,102.8c31.8,31.8,65.5,36,90.1,11.3C1413.2,1448.2,1420.4,1281.8,1364.2,1225.7z M1269,1112.6
	c17.1-31.9,10.4-70.4-15.2-86c-25.5-15.7-60.1-2.5-77.2,29.3c-17.1,31.9-10.4,70.4,15.2,86C1217.3,1157.6,1251.9,1144.5,1269,1112.6
	L1269,1112.6z M1343.6,1157.8c27.6,16.1,68.1-2.5,90.5-41.6s18-83.8-9.6-99.9c-27.6-16.1-68.1,2.5-90.5,41.6
	C1311.7,1097,1316,1141.7,1343.6,1157.8z M1563.3,1336.1c-15.7-25.5-54.2-32.3-86-15.2c-31.9,17.1-45,51.7-29.3,77.2
	c15.7,25.5,54.2,32.3,86,15.2C1565.9,1396.1,1579,1361.6,1563.3,1336.1L1563.3,1336.1z M1432.1,1246.3c16.1,27.6,60.9,31.9,99.9,9.6
	c39.1-22.3,57.7-62.8,41.6-90.5c-16.1-27.6-60.9-31.9-99.9-9.6S1416,1218.7,1432.1,1246.3z"/>
<path class="st2" d="M1380.2,229.8c-56.2-56.2-222.6-49-277.4,5.8c-24.7,24.7-20.5,58.4,11.3,90.1c34.5,34.5,75.1,39.6,102.8,67.3
	c27.9,27.9,33.1,68.5,67.3,102.8c31.8,31.8,65.5,36,90.1,11.3C1429.2,452.3,1436.4,285.9,1380.2,229.8z M1285,116.7
	c17.1-31.9,10.4-70.4-15.2-86c-25.5-15.7-60.1-2.5-77.2,29.3s-10.4,70.4,15.2,86C1233.3,161.7,1267.9,148.6,1285,116.7L1285,116.7z
	 M1359.6,161.9c27.6,16.1,68.1-2.5,90.5-41.6s18-83.8-9.6-99.9c-27.6-16.1-68.1,2.5-90.5,41.6S1332,145.8,1359.6,161.9z
	 M1579.3,340.1c-15.7-25.5-54.2-32.3-86-15.2c-31.9,17.1-45,51.7-29.3,77.2c15.7,25.5,54.2,32.3,86,15.2
	C1581.9,400.2,1595,365.7,1579.3,340.1L1579.3,340.1z M1448.1,250.4c16.1,27.6,60.9,31.9,99.9,9.6c39.1-22.3,57.7-62.8,41.6-90.5
	s-60.9-31.9-99.9-9.6S1432,222.8,1448.1,250.4z"/>
</svg>
