<svg id="Layer_1" data-name="Layer 1" xmlns="http://www.w3.org/2000/svg" viewBox="0 0 1600 1660"><defs><style>.cls-1{fill:#f0ece5;}.cls-2{fill:#fed8d2;}.cls-3{fill:#ffe95a;}</style></defs><path class="cls-1" d="M300.67,1360.71c-56.15-56.15-222.56-49-277.36,5.84-24.68,24.67-20.46,58.37,11.31,90.14,34.53,34.54,75.07,39.61,102.77,67.31,27.94,27.93,33.07,68.54,67.3,102.77,31.77,31.77,65.47,36,90.15,11.3C349.63,1583.28,356.83,1416.86,300.67,1360.71Zm-95.22-113.06c17.15-31.85,10.36-70.38-15.16-86.05s-60.09-2.54-77.23,29.31-10.36,70.38,15.15,86,60.09,2.55,77.24-29.31Zm74.6,45.21c27.63,16.13,68.13-2.48,90.47-41.56s18-83.81-9.61-99.93-68.14,2.48-90.47,41.56S252.41,1276.76,280.05,1292.86Zm219.72,178.23c-15.67-25.51-54.19-32.29-86-15.15s-45,51.72-29.31,77.24,54.19,32.29,86,15.15,45-51.73,29.31-77.24Zm-131.25-89.75c16.12,27.63,60.86,31.94,99.94,9.61s57.68-62.83,41.56-90.47-60.86-31.94-99.94-9.61S352.4,1353.7,368.52,1381.34Z"/><path class="cls-2" d="M1364.24,1225.68c-56.15-56.16-222.57-49-277.36,5.83-24.68,24.68-20.46,58.38,11.31,90.15,34.53,34.53,75.07,39.6,102.77,67.3,27.94,27.94,33.07,68.54,67.3,102.77,31.77,31.77,65.47,36,90.15,11.31C1413.2,1448.24,1420.4,1281.83,1364.24,1225.68ZM1269,1112.62c17.15-31.86,10.36-70.38-15.16-86s-60.09-2.55-77.23,29.31-10.36,70.38,15.15,86,60.09,2.54,77.24-29.31Zm74.6,45.21c27.63,16.12,68.13-2.49,90.46-41.56s18-83.82-9.6-99.94-68.14,2.49-90.47,41.56S1316,1141.72,1343.62,1157.83Zm219.72,178.23c-15.67-25.52-54.19-32.3-86-15.16s-45,51.73-29.31,77.24,54.18,32.29,86,15.15,45-51.72,29.31-77.23Zm-131.25-89.76c16.12,27.64,60.86,31.94,99.94,9.61s57.67-62.82,41.56-90.47-60.86-31.94-99.94-9.61S1416,1218.67,1432.09,1246.3Z"/><path class="cls-3" d="M1380.24,229.76c-56.15-56.15-222.57-49-277.36,5.84-24.68,24.67-20.46,58.38,11.31,90.15,34.53,34.53,75.07,39.6,102.77,67.3,27.94,27.94,33.07,68.54,67.3,102.77,31.77,31.77,65.47,36,90.15,11.31C1429.2,452.33,1436.39,285.91,1380.24,229.76ZM1285,116.7c17.14-31.85,10.36-70.37-15.16-86s-60.09-2.55-77.23,29.31-10.36,70.37,15.15,86,60.09,2.55,77.24-29.31Zm74.6,45.22c27.63,16.12,68.13-2.49,90.46-41.57s18-83.81-9.61-99.93S1372.34,22.91,1350,62,1332,145.81,1359.62,161.92Zm219.72,178.22c-15.67-25.51-54.19-32.29-86-15.15s-45,51.72-29.31,77.24,54.18,32.29,86,15.15,45-51.73,29.31-77.24Zm-131.25-89.75C1464.21,278,1509,282.33,1548,260s57.68-62.83,41.57-90.47-60.86-31.94-99.94-9.61S1432,222.76,1448.09,250.39Z"/></svg>